<?xml version="1.0" encoding="utf-8"?>
<svg viewBox="0 0 1200 800" fill="none" xmlns="http://www.w3.org/2000/svg" xmlns:bx="https://boxy-svg.com">
  <defs>
    <style bx:fonts="Inter">@import url("https://fonts.googleapis.com/css2?family=Inter:wght@400;500;600;700&amp;display=swap");</style>
    <style>.text { font-family: Inter, system-ui, sans-serif; }.title { font-size: 24px; font-weight: 700; fill: rgb(26, 26, 26); }.subtitle { font-size: 13px; font-weight: 600; }.label { font-size: 11px; font-weight: 500; }.small { font-size: 10px; font-weight: 400; }.tiny { font-size: 9px; font-weight: 400; }</style>
    <linearGradient id="commandGrad" x1="0%" y1="0%" x2="100%" y2="100%">
      <stop offset="0" style="stop-color:#0EA5E9;stop-opacity:0.2"/>
      <stop offset="1" style="stop-color:#0284c7;stop-opacity:0.2"/>
    </linearGradient>
    <linearGradient id="queryGrad" x1="0%" y1="0%" x2="100%" y2="100%">
      <stop offset="0" style="stop-color:#fb923c;stop-opacity:0.2"/>
      <stop offset="1" style="stop-color:#f97316;stop-opacity:0.2"/>
    </linearGradient>
    <linearGradient id="busBody" x1="0%" y1="0%" x2="0%" y2="100%">
      <stop offset="0" style="stop-color:#86efac"/>
      <stop offset="0.5" style="stop-color:#4ade80"/>
      <stop offset="1" style="stop-color:#22c55e"/>
    </linearGradient>
    <linearGradient id="storageCylinder" x1="0%" y1="0%" x2="0%" y2="100%">
      <stop offset="0" style="stop-color:#7dd3fc"/>
      <stop offset="0.5" style="stop-color:#38bdf8"/>
      <stop offset="1" style="stop-color:#0ea5e9"/>
    </linearGradient>
    <marker id="arrowBlue" markerWidth="10" markerHeight="7" refX="9" refY="3.5" orient="auto">
      <polygon points="0 0, 10 3.5, 0 7" fill="#0EA5E9"/>
    </marker>
    <marker id="arrowOrange" markerWidth="10" markerHeight="7" refX="9" refY="3.5" orient="auto">
      <polygon points="0 0, 10 3.5, 0 7" fill="#f97316"/>
    </marker>
    <marker id="arrowGreen" markerWidth="10" markerHeight="7" refX="9" refY="3.5" orient="auto">
      <polygon points="0 0, 10 3.5, 0 7" fill="#10b981"/>
    </marker>
    <marker id="arrowCyan" markerWidth="10" markerHeight="7" refX="9" refY="3.5" orient="auto">
      <polygon points="0 0, 10 3.5, 0 7" fill="#0ea5e9"/>
    </marker>
  </defs>
  <rect width="1200" height="800" fill="#ffffff"/>
  <text x="600" y="40" text-anchor="middle" class="text title" style="white-space: pre;">COMMAND-QUERY RESPONSIBILITY SEGREGATION</text>
  <rect x="30" y="80" width="1140" height="620" rx="12" fill="none" stroke="#cbd5e1" stroke-width="2" stroke-dasharray="8,4"/>
  <g id="pedido-microservice" transform="translate(60, 120)">
    <rect x="0" y="0" width="480" height="500" rx="10" fill="#f8fafc" stroke="#0EA5E9" stroke-width="2"/>
    <rect x="0" y="0" width="480" height="35" rx="10" fill="#0EA5E9"/>
    <rect x="0" y="28" width="480" height="10" fill="#0EA5E9"/>
    <text x="240" y="24" text-anchor="middle" class="text subtitle" fill="white" style="white-space: pre;">Pedido Microservice</text>
    <g transform="translate(100, 65)">
      <rect x="-60" y="-18" width="120" height="36" rx="6" fill="url(#commandGrad)" stroke="#0EA5E9" stroke-width="1.5"/>
      <text x="0" y="3" text-anchor="middle" class="text label" fill="#0369a1" style="white-space: pre;">Command</text>
      <text x="0" y="16" text-anchor="middle" class="text tiny" fill="#0369a1" style="white-space: pre;">Endpoint</text>
    </g>
    <g transform="translate(380, 65)">
      <rect x="-60" y="-18" width="120" height="36" rx="6" fill="url(#queryGrad)" stroke="#f97316" stroke-width="1.5"/>
      <text x="0" y="3" text-anchor="middle" class="text label" fill="#c2410c" style="white-space: pre;">Query</text>
      <text x="0" y="16" text-anchor="middle" class="text tiny" fill="#c2410c" style="white-space: pre;">Endpoint</text>
    </g>
    <g transform="translate(120, 150)">
      <rect x="-80" y="-40" width="160" height="120" rx="8" fill="url(#commandGrad)" stroke="#0EA5E9" stroke-width="2"/>
      <rect x="-80" y="-40" width="160" height="28" rx="8" fill="#0EA5E9"/>
      <rect x="-80" y="-16" width="160" height="8" fill="#0EA5E9"/>
      <text x="0" y="-21" text-anchor="middle" class="text label" fill="white" style="white-space: pre;">Command Service</text>
      <rect x="-65" y="0" width="130" height="60" rx="6" fill="#e0f2fe" stroke="#0284c7" stroke-width="1"/>
      <text x="0" y="15" text-anchor="middle" class="text small" fill="#0c4a6e" font-weight="600" style="white-space: pre;">Command Model</text>
      <text x="-55" y="30" class="text tiny" fill="#0c4a6e" style="white-space: pre;">• Aggregates</text>
      <text x="-55" y="42" class="text tiny" fill="#0c4a6e" style="white-space: pre;">• Entities</text>
      <text x="-55" y="54" class="text tiny" fill="#0c4a6e" style="white-space: pre;">• Domain Logic</text>
    </g>
    <g transform="translate(360, 150)">
      <rect x="-80" y="-40" width="160" height="120" rx="8" fill="url(#queryGrad)" stroke="#f97316" stroke-width="2"/>
      <rect x="-80" y="-40" width="160" height="28" rx="8" fill="#f97316"/>
      <rect x="-80" y="-16" width="160" height="8" fill="#f97316"/>
      <text x="0" y="-21" text-anchor="middle" class="text label" fill="white" style="white-space: pre;">Query Service</text>
      <rect x="-65" y="0" width="130" height="60" rx="6" fill="#fed7aa" stroke="#f97316" stroke-width="1"/>
      <text x="0" y="15" text-anchor="middle" class="text small" fill="#7c2d12" font-weight="600" style="white-space: pre;">Query Model</text>
      <text x="-55" y="30" class="text tiny" fill="#7c2d12" style="white-space: pre;">• DTOs</text>
      <text x="-55" y="42" class="text tiny" fill="#7c2d12" style="white-space: pre;">• Projections</text>
      <text x="-55" y="54" class="text tiny" fill="#7c2d12" style="white-space: pre;">• Views</text>
    </g>
    <g transform="translate(120, 320)">
      <rect x="-70" y="-20" width="140" height="40" rx="6" fill="#d1fae5" stroke="#10b981" stroke-width="1.5"/>
      <text x="0" y="-2" text-anchor="middle" class="text label" fill="#047857" style="white-space: pre;">Event</text>
      <text x="0" y="12" text-anchor="middle" class="text label" fill="#047857" style="white-space: pre;">Publisher</text>
    </g>
    <g transform="translate(360, 320)">
      <rect x="-70" y="-20" width="140" height="40" rx="6" fill="#d1fae5" stroke="#10b981" stroke-width="1.5"/>
      <text x="0" y="-2" text-anchor="middle" class="text label" fill="#047857" style="white-space: pre;">Event</text>
      <text x="0" y="12" text-anchor="middle" class="text label" fill="#047857" style="white-space: pre;">Consumer</text>
    </g>
    <g transform="translate(120, 420)">
      <ellipse cx="0" cy="-10" rx="55" ry="8" fill="#7dd3fc"/>
      <rect x="-55" y="-10" width="110" height="35" fill="url(#storageCylinder)"/>
      <ellipse cx="0" cy="25" rx="55" ry="8" fill="#38bdf8" stroke="#0ea5e9" stroke-width="1"/>
      <text x="0" y="10" text-anchor="middle" class="text small" fill="#ffffff" font-weight="700" style="white-space: pre;">Event</text>
      <text x="0" y="22" text-anchor="middle" class="text small" fill="#ffffff" font-weight="700" style="white-space: pre;">Store</text>
    </g>
    <g transform="translate(360, 420)">
      <ellipse cx="0" cy="-10" rx="55" ry="8" fill="#7dd3fc"/>
      <rect x="-55" y="-10" width="110" height="35" fill="url(#storageCylinder)"/>
      <ellipse cx="0" cy="25" rx="55" ry="8" fill="#38bdf8" stroke="#0ea5e9" stroke-width="1"/>
      <text x="0" y="10" text-anchor="middle" class="text small" fill="#ffffff" font-weight="700" style="white-space: pre;">Read</text>
      <text x="0" y="22" text-anchor="middle" class="text small" fill="#ffffff" font-weight="700" style="white-space: pre;">Storage</text>
    </g>
    <line x1="95.886" y1="87.156" x2="120" y2="110" stroke="#0EA5E9" stroke-width="2" marker-end="url(#arrowBlue)" style=""/>
    <line x1="378.572" y1="85.97" x2="360" y2="110" stroke="#f97316" stroke-width="2" marker-end="url(#arrowOrange)" style=""/>
    <line x1="120" y1="230" x2="120" y2="300" stroke="#10b981" stroke-width="2" marker-end="url(#arrowGreen)"/>
    <line x1="360" y1="230" x2="360" y2="300" stroke="#10b981" stroke-width="2" marker-end="url(#arrowGreen)"/>
    <line x1="120" y1="342.342" x2="120" y2="400" stroke="#0ea5e9" stroke-width="1.5" marker-end="url(#arrowCyan)" style=""/>
    <line x1="360" y1="345.886" x2="360" y2="400" stroke="#0ea5e9" stroke-width="1.5" marker-end="url(#arrowCyan)" style=""/>
  </g>
  <g id="cliente-microservice" transform="translate(660, 120)">
    <rect x="0" y="0" width="480" height="500" rx="10" fill="#f8fafc" stroke="#f97316" stroke-width="2"/>
    <rect x="0" y="0" width="480" height="35" rx="10" fill="#f97316"/>
    <rect x="0" y="28" width="480" height="10" fill="#f97316"/>
    <text x="240" y="24" text-anchor="middle" class="text subtitle" fill="white" style="white-space: pre;">Cliente Microservice</text>
    <g transform="translate(100, 65)">
      <rect x="-60" y="-18" width="120" height="36" rx="6" fill="url(#queryGrad)" stroke="#f97316" stroke-width="1.5"/>
      <text x="0" y="3" text-anchor="middle" class="text label" fill="#c2410c" style="white-space: pre;">Query</text>
      <text x="0" y="16" text-anchor="middle" class="text tiny" fill="#c2410c" style="white-space: pre;">Endpoint</text>
    </g>
    <g transform="translate(380, 65)">
      <rect x="-60" y="-18" width="120" height="36" rx="6" fill="url(#commandGrad)" stroke="#0EA5E9" stroke-width="1.5"/>
      <text x="0" y="3" text-anchor="middle" class="text label" fill="#0369a1" style="white-space: pre;">Command</text>
      <text x="0" y="16" text-anchor="middle" class="text tiny" fill="#0369a1" style="white-space: pre;">Endpoint</text>
    </g>
    <g transform="translate(120, 150)">
      <rect x="-80" y="-40" width="160" height="120" rx="8" fill="url(#queryGrad)" stroke="#f97316" stroke-width="2"/>
      <rect x="-80" y="-40" width="160" height="28" rx="8" fill="#f97316"/>
      <rect x="-80" y="-16" width="160" height="8" fill="#f97316"/>
      <text x="0" y="-21" text-anchor="middle" class="text label" fill="white" style="white-space: pre;">Query Service</text>
      <rect x="-65" y="0" width="130" height="60" rx="6" fill="#fed7aa" stroke="#f97316" stroke-width="1"/>
      <text x="0" y="15" text-anchor="middle" class="text small" fill="#7c2d12" font-weight="600" style="white-space: pre;">Query Model</text>
      <text x="-55" y="30" class="text tiny" fill="#7c2d12" style="white-space: pre;">• DTOs</text>
      <text x="-55" y="42" class="text tiny" fill="#7c2d12" style="white-space: pre;">• Projections</text>
      <text x="-55" y="54" class="text tiny" fill="#7c2d12" style="white-space: pre;">• Views</text>
    </g>
    <g transform="translate(360, 150)">
      <rect x="-80" y="-40" width="160" height="120" rx="8" fill="url(#commandGrad)" stroke="#0EA5E9" stroke-width="2"/>
      <rect x="-80" y="-40" width="160" height="28" rx="8" fill="#0EA5E9"/>
      <rect x="-80" y="-16" width="160" height="8" fill="#0EA5E9"/>
      <text x="0" y="-21" text-anchor="middle" class="text label" fill="white" style="white-space: pre;">Command Service</text>
      <rect x="-65" y="0" width="130" height="60" rx="6" fill="#e0f2fe" stroke="#0284c7" stroke-width="1"/>
      <text x="0" y="15" text-anchor="middle" class="text small" fill="#0c4a6e" font-weight="600" style="white-space: pre;">Command Model</text>
      <text x="-55" y="30" class="text tiny" fill="#0c4a6e" style="white-space: pre;">• Aggregates</text>
      <text x="-55" y="42" class="text tiny" fill="#0c4a6e" style="white-space: pre;">• Entities</text>
      <text x="-55" y="54" class="text tiny" fill="#0c4a6e" style="white-space: pre;">• Domain Logic</text>
    </g>
    <g transform="translate(120, 320)">
      <rect x="-70" y="-20" width="140" height="40" rx="6" fill="#d1fae5" stroke="#10b981" stroke-width="1.5"/>
      <text x="0" y="-2" text-anchor="middle" class="text label" fill="#047857" style="white-space: pre;">Event</text>
      <text x="0" y="12" text-anchor="middle" class="text label" fill="#047857" style="white-space: pre;">Consumer</text>
    </g>
    <g transform="translate(360, 320)">
      <rect x="-70" y="-20" width="140" height="40" rx="6" fill="#d1fae5" stroke="#10b981" stroke-width="1.5"/>
      <text x="0" y="-2" text-anchor="middle" class="text label" fill="#047857" style="white-space: pre;">Event</text>
      <text x="0" y="12" text-anchor="middle" class="text label" fill="#047857" style="white-space: pre;">Publisher</text>
    </g>
    <g transform="translate(120, 420)">
      <ellipse cx="0" cy="-10" rx="55" ry="8" fill="#7dd3fc"/>
      <rect x="-55" y="-10" width="110" height="35" fill="url(#storageCylinder)"/>
      <ellipse cx="0" cy="25" rx="55" ry="8" fill="#38bdf8" stroke="#0ea5e9" stroke-width="1"/>
      <text x="0" y="10" text-anchor="middle" class="text small" fill="#ffffff" font-weight="700" style="white-space: pre;">Read</text>
      <text x="0" y="22" text-anchor="middle" class="text small" fill="#ffffff" font-weight="700" style="white-space: pre;">Storage</text>
    </g>
    <g transform="translate(360, 420)">
      <ellipse cx="0" cy="-10" rx="55" ry="8" fill="#7dd3fc"/>
      <rect x="-55" y="-10" width="110" height="35" fill="url(#storageCylinder)"/>
      <ellipse cx="0" cy="25" rx="55" ry="8" fill="#38bdf8" stroke="#0ea5e9" stroke-width="1"/>
      <text x="0" y="10" text-anchor="middle" class="text small" fill="#ffffff" font-weight="700" style="white-space: pre;">Event</text>
      <text x="0" y="22" text-anchor="middle" class="text small" fill="#ffffff" font-weight="700" style="white-space: pre;">Store</text>
    </g>
    <line x1="98.368" y1="84.024" x2="120" y2="110" stroke="#f97316" stroke-width="2" marker-end="url(#arrowOrange)" style=""/>
    <line x1="379.184" y1="87.806" x2="360" y2="110" stroke="#0EA5E9" stroke-width="2" marker-end="url(#arrowBlue)" style=""/>
    <line x1="120" y1="230" x2="120" y2="300" stroke="#10b981" stroke-width="2" marker-end="url(#arrowGreen)"/>
    <line x1="360" y1="230" x2="360" y2="300" stroke="#10b981" stroke-width="2" marker-end="url(#arrowGreen)"/>
    <line x1="120" y1="342.194" x2="120" y2="400" stroke="#0ea5e9" stroke-width="1.5" marker-end="url(#arrowCyan)" style=""/>
    <line x1="360" y1="343.756" x2="360" y2="400" stroke="#0ea5e9" stroke-width="1.5" marker-end="url(#arrowCyan)" style=""/>
  </g>
  <g transform="matrix(1, 0, 0, 1, 594.752502, 692.61615)">
    <ellipse cx="-280" cy="0" rx="15" ry="35" fill="#86efac" stroke="#10b981" stroke-width="2"/>
    <rect x="-280" y="-35" width="560" height="70" fill="url(#busBody)"/>
    <ellipse cx="280" cy="0" rx="15" ry="35" fill="#4ade80" stroke="#10b981" stroke-width="2"/>
    <text x="0" y="-8" text-anchor="middle" class="text subtitle" fill="#ffffff" font-size="16" font-weight="700" style="white-space: pre;">EVENT BUS</text>
    <text x="0" y="10" text-anchor="middle" class="text small" fill="#ffffff" font-weight="600" style="white-space: pre;">(Kafka / RabbitMQ / Redis Streams)</text>
  </g>
  <line x1="208.408" y1="575.419" x2="317.479" y2="655.099" stroke="#10b981" stroke-width="2.5" marker-end="url(#arrowGreen)" style=""/>
  <line x1="419.025" y1="576.11" x2="431.241" y2="659.213" stroke="#10b981" stroke-width="2.5" marker-end="url(#arrowGreen)" style=""/>
  <line x1="768.959" y1="656.458" x2="780.07" y2="574.731" stroke="#10b981" stroke-width="2.5" marker-end="url(#arrowGreen)" style=""/>
  <line x1="855.644" y1="657.405" x2="978.981" y2="573.715" stroke="#10b981" stroke-width="2.5" marker-end="url(#arrowGreen)" style=""/>
  <g transform="translate(60, 755)">
    <rect x="0" y="0" width="18" height="18" rx="3" fill="#0EA5E9"/>
    <text x="25" y="14" class="text small" fill="#333" font-weight="600" style="white-space: pre;">Command Flow</text>
    <rect x="170" y="0" width="18" height="18" rx="3" fill="#f97316"/>
    <text x="195" y="14" class="text small" fill="#333" font-weight="600" style="white-space: pre;">Query Flow</text>
    <rect x="320" y="0" width="18" height="18" rx="3" fill="#10b981"/>
    <text x="345" y="14" class="text small" fill="#333" font-weight="600" style="white-space: pre;">Event Flow</text>
    <rect x="460" y="0" width="18" height="18" rx="3" fill="#38bdf8"/>
    <text x="485" y="14" class="text small" fill="#333" font-weight="600" style="white-space: pre;">Storage</text>
  </g>
</svg>