<svg width="574" height="635" xmlns="http://www.w3.org/2000/svg" xml:space="preserve" enable-background="new 0 0 688 687" version="1.1">

 <g>
  <title>Layer 1</title>
  <path stroke="null" id="svg_1" d="m343.82907,635.10065c-113.61029,0 -226.80342,-0.0166 -339.99647,0.08704c-3.1284,0.00287 -3.83404,-0.78101 -3.8326,-4.24658c0.08702,-208.89838 0.08702,-417.7968 0,-626.6952c-0.00144,-3.46553 0.7044,-4.2475 3.83257,-4.2459c188.84057,0.09639 377.68116,0.09639 566.52174,0c3.12817,-0.0016 3.83405,0.78036 3.83258,4.2459c-0.08704,208.8984 -0.08698,417.79682 0,626.6952c0.00146,3.46558 -0.70392,4.25208 -3.83264,4.24738c-75.3692,-0.11273 -150.73865,-0.08783 -226.52518,-0.08783z" fill="#FFFFFF"/>
  <path stroke="null" id="svg_2" d="m391.36603,569.36798c-27.84946,16.06305 -55.26468,32.15009 -82.97977,47.70276c-13.11359,7.35889 -27.1756,8.15027 -40.41983,0.50098c-75.64626,-43.68994 -151.09498,-87.72186 -226.72143,-131.44635c-13.14079,-7.5976 -19.21432,-18.41168 -19.17268,-33.49179c0.15506,-56.16309 0.90543,-112.34573 -0.31129,-168.48325c-0.71444,-32.96339 -1.51167,-65.91853 -1.72825,-98.89197c-0.09825,-14.95824 6.23564,-25.60378 19.21335,-32.94672c24.03877,-13.60147 47.89856,-27.52009 71.79823,-41.36643c49.39281,-28.61588 98.74801,-57.29668 148.15876,-85.8815c7.17484,-4.15073 14.38004,-8.23376 22.62302,-10.20046c5.4845,-1.30855 10.65283,-0.7946 15.58438,1.41745c19.6409,8.80992 37.98849,19.93769 55.95969,31.71212c0.23383,0.15319 0.33954,0.50196 0.66385,1.00653c-5.84045,4.6833 -12.42188,8.25893 -18.73978,12.20816c-55.36984,34.61105 -112.50899,66.2189 -168.75111,99.35006c-11.62508,6.84811 -23.24568,13.70406 -34.83821,20.60703c-5.05782,3.01176 -5.07752,3.16457 -0.12852,6.24652c24.17703,15.05603 49.07976,28.87177 73.72433,43.1308c15.70996,9.0896 31.15305,18.63943 46.79941,27.84074c3.73758,2.19803 3.42197,3.4899 -0.09067,5.56995c-20.20715,11.96591 -40.37399,24.00159 -60.4444,36.19485c-3.30115,2.00555 -5.58147,0.62466 -8.21297,-0.90042c-25.65134,-14.86639 -51.31111,-29.71826 -76.986,-44.54393c-3.46086,-1.99841 -7.06593,-3.74802 -10.51656,-5.76297c-2.85695,-1.66824 -4.11455,-1.34616 -4.05229,2.30246c0.52017,30.48778 -1.03271,60.96074 -0.27034,91.46635c0.72429,28.98236 0.38872,57.99307 0.32137,86.99088c-0.00813,3.50339 1.15227,5.36002 4.13301,6.98935c50.41698,27.55878 99.52622,57.43466 150.08604,84.74387c8.30249,4.48444 8.28903,4.54559 8.29526,-5.08331c0.02087,-32.33148 0.09882,-64.66333 -0.05368,-96.99408c-0.01904,-4.03107 1.2652,-6.24655 4.75841,-8.24982c19.94095,-11.43546 39.93018,-22.77744 60.25861,-33.51343c1.60886,-0.84967 3.25998,-1.61935 5.14478,-2.55151c1.55209,2.84064 1.41611,5.78094 1.58725,8.67123c1.65598,27.96854 1.02081,55.96323 1.02008,83.95193c-0.00043,17.49695 0.28256,34.99445 0.20157,52.49054c-0.02084,4.49982 0.80362,5.52332 5.04718,3.11517c25.6329,-14.54608 51.41629,-28.82697 77.04803,-43.37506c47.94916,-27.21484 95.51785,-55.08469 142.85379,-83.35233c1.40765,-0.84061 2.92029,-1.5054 4.66602,-2.39609c2.06787,7.62885 1.35779,15.18536 1.86877,22.57648c0.99939,14.45343 0.48749,28.95181 -1.74243,43.30734c-1.16791,7.51907 -5.17908,13.58124 -10.77271,18.63693c-6.87018,6.20941 -15.16577,10.20673 -23.08105,14.77332c-43.81152,25.27618 -87.65649,50.49438 -131.80121,75.92761z" fill="#3780C2"/>
  <path id="svg_3" d="m327.51465,100.50497c18.11435,-10.92835 35.98993,-21.55292 53.69843,-32.44908c3.19547,-1.9662 5.47855,-1.71714 8.53519,0.05901c45.55783,26.47299 91.17758,52.8395 136.77988,79.2359c3.16541,1.83224 6.25305,3.80626 9.47278,5.53572c13.88568,7.45857 19.97534,19.61252 20.02472,34.77371c0.18164,55.81512 0.04071,111.63124 0.1499,167.44676c0.0069,3.5289 -0.81622,5.6091 -4.05505,7.51584c-18.77521,11.05316 -37.36487,22.42136 -56.05444,33.621c-1.33075,0.79749 -2.76123,2.71698 -4.32056,1.52554c-0.78955,-0.60318 -0.53284,-2.74146 -0.53442,-4.18594c-0.04749,-44.15268 -0.06256,-88.30539 -0.10486,-132.4581c-0.00305,-3.16327 -0.40173,-6.33977 -0.21588,-9.4865c0.28394,-4.80737 -1.60944,-4.35062 -4.83917,-2.53116c-17.2569,9.72188 -34.61441,19.26524 -51.8642,28.99965c-57.38977,32.38605 -114.40091,65.44333 -172.18851,97.12415c-7.37785,4.04474 -7.46815,4.02719 -7.51585,-4.35599c-0.05121,-8.9964 -0.14481,-18.00183 0.20865,-26.98648c0.13351,-3.39423 -1.10413,-5.10397 -3.85196,-6.65576c-8.69461,-4.91006 -17.2821,-10.01041 -25.88995,-15.073c-1.70493,-1.00272 -3.31635,-2.16449 -5.40143,-3.53613c9.90067,-6.96295 20.09338,-12.54947 30.05338,-18.49664c62.7206,-37.4512 126.86684,-72.45116 189.44203,-110.15395c9.32755,-5.62003 9.41129,-5.60138 0.12387,-11.03368c-37.92563,-22.18304 -75.87845,-44.31966 -113.80801,-66.49599c-2.54874,-1.49016 -4.98788,-3.16779 -8.13089,-5.17525c3.69415,-2.42307 6.84225,-4.48798 10.28638,-6.76364z" fill="#1F4A70"/>
 </g>
</svg>