<?xml version="1.0" encoding="utf-8"?>
<svg version="1.1" id="Layer_1" x="0px" y="0px" width="100%" viewBox="0 0 688 687" enable-background="new 0 0 688 687" xmlns="http://www.w3.org/2000/svg">
  <path fill="#3780C2" opacity="1.000000" stroke="none" d=" M442.272583,602.274536 C414.423126,618.337585 387.007904,634.424622 359.292816,649.977295 C346.179230,657.336182 332.117218,658.127563 318.872986,650.478271 C243.226715,606.788330 167.778000,562.756409 92.151550,519.031921 C79.010757,511.434326 72.937233,500.620239 72.978874,485.540131 C73.133934,429.377045 73.884300,373.194397 72.667580,317.056885 C71.953140,284.093475 71.155914,251.138336 70.939331,218.164902 C70.841080,203.206665 77.174973,192.561127 90.152679,185.218185 C114.191452,171.616714 138.051239,157.698105 161.950912,143.851761 C211.343719,115.235878 260.698914,86.555077 310.109680,57.970264 C317.284515,53.819527 324.489716,49.736504 332.732697,47.769802 C338.217194,46.461250 343.385529,46.975204 348.317078,49.187248 C367.957977,57.997166 386.305573,69.124939 404.276764,80.899368 C404.510590,81.052559 404.616302,81.401329 404.940613,81.905899 C399.100159,86.589195 392.518738,90.164825 386.200836,94.114059 C330.830994,128.725113 273.691833,160.332962 217.449707,193.464111 C205.824631,200.312225 194.204025,207.168167 182.611496,214.071136 C177.553680,217.082901 177.533981,217.235703 182.482971,220.317657 C206.660004,235.373688 231.562729,249.189423 256.207306,263.448456 C271.917267,272.538055 287.360352,282.087891 303.006714,291.289215 C306.744293,293.487244 306.428680,294.779114 302.916046,296.859161 C282.708893,308.825073 262.542053,320.860748 242.471649,333.054016 C239.170502,335.059570 236.890182,333.678680 234.258682,332.153595 C208.607346,317.287201 182.947571,302.435333 157.272690,287.609650 C153.811829,285.611237 150.206757,283.861633 146.756134,281.846680 C143.899185,280.178436 142.641586,280.500519 142.703842,284.149139 C143.224014,314.636932 141.671127,345.109894 142.433502,375.615509 C143.157791,404.597870 142.822220,433.608582 142.754868,462.606384 C142.746735,466.109772 143.907135,467.966400 146.887878,469.595734 C197.304855,497.154510 246.414093,527.030396 296.973907,554.339600 C305.276398,558.824036 305.262939,558.885193 305.269165,549.256287 C305.290039,516.924805 305.367981,484.592957 305.215485,452.262207 C305.196442,448.231140 306.480682,446.015656 309.973907,444.012390 C329.914856,432.576935 349.904083,421.234955 370.232513,410.498962 C371.841370,409.649292 373.492493,408.879608 375.377289,407.947449 C376.929382,410.788086 376.793396,413.728394 376.964539,416.618683 C378.620514,444.587219 377.985352,472.581909 377.984619,500.570618 C377.984192,518.067566 378.267181,535.565063 378.186188,553.061157 C378.165344,557.560974 378.989807,558.584473 383.233368,556.176331 C408.866272,541.630249 434.649658,527.349365 460.281403,512.801270 C508.230560,485.586426 555.799255,457.716583 603.135193,429.448944 C604.542847,428.608337 606.055481,427.943542 607.801208,427.052856 C609.869080,434.681702 609.158997,442.238220 609.669983,449.629333 C610.669373,464.082764 610.157471,478.581146 607.927551,492.936676 C606.759644,500.455750 602.748474,506.517914 597.154846,511.573608 C590.284668,517.783020 581.989075,521.780334 574.073792,526.346924 C530.262268,551.623108 486.417297,576.841309 442.272583,602.274536 z"/>
  <path fill="#1F4A70" opacity="1.000000" stroke="none" d=" M378.421204,133.411514 C396.535553,122.483162 414.411133,111.858604 432.119629,100.962425 C435.315094,98.996231 437.598175,99.245285 440.654816,101.021454 C486.212646,127.494438 531.832397,153.860947 577.434692,180.257339 C580.600098,182.089584 583.687744,184.063599 586.907471,185.793060 C600.793152,193.251633 606.882812,205.405579 606.932190,220.566772 C607.113831,276.381897 606.972900,332.198029 607.082092,388.013550 C607.088989,391.542450 606.265869,393.622650 603.027039,395.529388 C584.251831,406.582550 565.662170,417.950745 546.972595,429.150391 C545.641846,429.947876 544.211365,431.867371 542.652039,430.675934 C541.862488,430.072754 542.119202,427.934479 542.117615,426.489990 C542.070129,382.337311 542.055054,338.184601 542.012756,294.031891 C542.009705,290.868622 541.611023,287.692108 541.796875,284.545380 C542.080811,279.738007 540.187439,280.194763 536.957703,282.014221 C519.700806,291.736115 502.343292,301.279480 485.093506,311.013885 C427.703735,343.399933 370.692596,376.457214 312.904999,408.138031 C305.527130,412.182770 305.436829,412.165222 305.389130,403.782043 C305.337921,394.785645 305.244324,385.780212 305.597778,376.795563 C305.731293,373.401337 304.493652,371.691589 301.745819,370.139801 C293.051208,365.229736 284.463715,360.129395 275.855865,355.066803 C274.150940,354.064087 272.539520,352.902313 270.454437,351.530670 C280.355103,344.567719 290.547821,338.981201 300.507812,333.034027 C363.228424,295.582825 427.374664,260.582855 489.949860,222.880066 C499.277405,217.260040 499.361145,217.278687 490.073730,211.846390 C452.148102,189.663345 414.195282,167.526733 376.265717,145.350403 C373.716980,143.860245 371.277832,142.182617 368.134827,140.175156 C371.828979,137.752090 374.977081,135.687180 378.421204,133.411514 z"/>
</svg>