<svg viewBox="0 0 1132 804" height="804" width="1132" xmlns:xlink="http://www.w3.org/1999/xlink" xmlns="http://www.w3.org/2000/svg" xmlns:ev="http://www.w3.org/2001/xml-events"><style type="text/css"><![CDATA[
.st2 {fill:#ffffff;font-family:Arial;font-size:10.5pt}
.st1 {fill:#ffffff;font-family:Arial;font-size:13.5pt}
]]></style><defs/><g id="page1" transform="translate(5,5)"><rect x="0" y="0" stroke="#808080" fill="#ffffff" height="794" width="1123"/><g id="shape1" transform="translate(244.13,321.06)"><path stroke="#2ca9e0" fill="#2ca9e0" d="M152.7,76.3L114.5,142.5L38.2,142.5L0,76.3L38.2,10.2L114.5,10.2L152.7,76.3z"/><text class="st1"><tspan x="50.3" y="60.8">CODE</tspan><tspan x="20.3" y="81.8">GENERATOR</tspan><tspan x="43.3" y="102.8">PLUGIN</tspan></text></g><g id="shape2" transform="translate(369.15,250.25)"><path stroke="#2ca9e0" fill="#2d85c1" d="M152.7,76.3L114.5,142.5L38.2,142.5L0,76.3L38.2,10.2L114.5,10.2L152.7,76.3z"/><text class="st1"><tspan x="57.3" y="50.3">DDD</tspan><tspan x="40.3" y="71.3">DOMAIN</tspan><tspan x="58.3" y="92.3">APP</tspan><tspan x="49.3" y="113.3">INFRA</tspan></text></g><g id="shape3" transform="translate(369.15,389.66)"><path stroke="#2ca9e0" fill="#2d85c1" d="M152.7,76.3L114.5,142.5L38.2,142.5L0,76.3L38.2,10.2L114.5,10.2L152.7,76.3z"/><text class="st2"><tspan x="11.3" y="80.8">TRANSFORMATION</tspan></text></g><g id="shape4" transform="translate(491.96,321.06)"><path stroke="#2ca9e0" fill="#0070c0" d="M152.7,76.3L114.5,142.5L38.2,142.5L0,76.3L38.2,10.2L114.5,10.2L152.7,76.3z"/><text class="st1"><tspan x="57.3" y="71.3">DDD</tspan><tspan x="52.3" y="92.3">SPEC</tspan></text></g><g id="shape5" transform="translate(618.09,250.25)"><path stroke="#2ca9e0" fill="#2d85c1" d="M152.7,76.3L114.5,142.5L38.2,142.5L0,76.3L38.2,10.2L114.5,10.2L152.7,76.3z"/><text class="st1"><tspan x="57.3" y="60.8">DDD</tspan><tspan x="39.3" y="81.8">SHARED</tspan><tspan x="40.3" y="102.8">KERNEL</tspan></text></g><g id="shape6" transform="translate(618.09,389.66)"><path stroke="#2ca9e0" fill="#2d85c1" d="M152.7,76.3L114.5,142.5L38.2,142.5L0,76.3L38.2,10.2L114.5,10.2L152.7,76.3z"/><text class="st1"><tspan x="18.3" y="71.3">ANNOTATION</tspan><tspan x="19.3" y="92.3">PROCESSOR</tspan></text></g><g id="shape7" transform="translate(369.15,107.32)"><path stroke="#2ca9e0" fill="#2ca9e0" d="M152.7,76.3L114.5,142.5L38.2,142.5L0,76.3L38.2,10.2L114.5,10.2L152.7,76.3z"/><text class="st2"><tspan x="27.3" y="63.8">SPRING BOOT</tspan><tspan x="18.3" y="80.8">CONFIGURATION</tspan><tspan x="44.3" y="97.8">STARTER</tspan></text></g><g id="shape8" transform="translate(369.15,530)"><path stroke="#2ca9e0" fill="#2ca9e0" d="M152.7,76.3L114.5,142.5L38.2,142.5L0,76.3L38.2,10.2L114.5,10.2L152.7,76.3z"/><text class="st1"><tspan x="38.3" y="81.8">LOGGER</tspan></text></g><g id="shape9" transform="translate(491.96,178.34)"><path stroke="#2ca9e0" fill="#2ca9e0" d="M152.7,76.3L114.5,142.5L38.2,142.5L0,76.3L38.2,10.2L114.5,10.2L152.7,76.3z"/><text class="st1"><tspan x="50.3" y="81.8">CQRS</tspan></text></g><g id="shape10" transform="translate(491.96,462.68)"><path stroke="#2ca9e0" fill="#2ca9e0" d="M152.7,76.3L114.5,142.5L38.2,142.5L0,76.3L38.2,10.2L114.5,10.2L152.7,76.3z"/><text class="st1"><tspan x="44.3" y="81.8">QUERY</tspan></text></g><g id="shape11" transform="translate(618.09,107.32)"><path stroke="#2ca9e0" fill="#2ca9e0" d="M152.7,76.3L114.5,142.5L38.2,142.5L0,76.3L38.2,10.2L114.5,10.2L152.7,76.3z"/><text class="st1"><tspan x="24.3" y="81.8">VALIDATION</tspan></text></g><g id="shape12" transform="translate(618.09,529)"><path stroke="#2ca9e0" fill="#2ca9e0" d="M152.7,76.3L114.5,142.5L38.2,142.5L0,76.3L38.2,10.2L114.5,10.2L152.7,76.3z"/><text class="st1"><tspan x="57.3" y="60.8">DDD </tspan><tspan x="24.3" y="81.8">VALIDATION </tspan><tspan x="44.3" y="102.8">MODEL</tspan></text></g><g id="shape13" transform="translate(740.32,321.06)"><path stroke="#2ca9e0" fill="#2ca9e0" d="M152.7,76.3L114.5,142.5L38.2,142.5L0,76.3L38.2,10.2L114.5,10.2L152.7,76.3z"/><text class="st1"><tspan x="44.3" y="71.3">ERROR</tspan><tspan x="30.3" y="92.3">HANDLING</tspan></text></g></g></svg>